<?xml version="1.0" standalone="no"?>
<svg xmlns:xlink="http://www.w3.org/1999/xlink" id="wave" style="transform:rotate(180deg); transition: 0.3s" viewBox="0 0 1440 490" version="1.1" xmlns="http://www.w3.org/2000/svg"><defs><linearGradient id="sw-gradient-0" x1="0" x2="0" y1="1" y2="0"><stop stop-color="rgba(235.875, 116.472, 116.472, 1)" offset="0%"/><stop stop-color="rgba(0, 0, 0, 1)" offset="100%"/></linearGradient></defs><path style="transform:translate(0, 0px); opacity:1" fill="url(#sw-gradient-0)" d="M0,147L48,130.7C96,114,192,82,288,81.7C384,82,480,114,576,155.2C672,196,768,245,864,228.7C960,212,1056,131,1152,81.7C1248,33,1344,16,1440,73.5C1536,131,1632,261,1728,269.5C1824,278,1920,163,2016,147C2112,131,2208,212,2304,277.7C2400,343,2496,392,2592,416.5C2688,441,2784,441,2880,383.8C2976,327,3072,212,3168,179.7C3264,147,3360,196,3456,179.7C3552,163,3648,82,3744,57.2C3840,33,3936,65,4032,106.2C4128,147,4224,196,4320,236.8C4416,278,4512,310,4608,277.7C4704,245,4800,147,4896,155.2C4992,163,5088,278,5184,310.3C5280,343,5376,294,5472,261.3C5568,229,5664,212,5760,220.5C5856,229,5952,261,6048,294C6144,327,6240,359,6336,383.8C6432,408,6528,425,6624,432.8C6720,441,6816,441,6864,441L6912,441L6912,490L6864,490C6816,490,6720,490,6624,490C6528,490,6432,490,6336,490C6240,490,6144,490,6048,490C5952,490,5856,490,5760,490C5664,490,5568,490,5472,490C5376,490,5280,490,5184,490C5088,490,4992,490,4896,490C4800,490,4704,490,4608,490C4512,490,4416,490,4320,490C4224,490,4128,490,4032,490C3936,490,3840,490,3744,490C3648,490,3552,490,3456,490C3360,490,3264,490,3168,490C3072,490,2976,490,2880,490C2784,490,2688,490,2592,490C2496,490,2400,490,2304,490C2208,490,2112,490,2016,490C1920,490,1824,490,1728,490C1632,490,1536,490,1440,490C1344,490,1248,490,1152,490C1056,490,960,490,864,490C768,490,672,490,576,490C480,490,384,490,288,490C192,490,96,490,48,490L0,490Z"/></svg>