<?xml version="1.0" standalone="no"?><svg xmlns="http://www.w3.org/2000/svg" viewBox="0 0 1440 320"><path fill="#273036" fill-opacity="1" d="M0,64L17.1,85.3C34.3,107,69,149,103,170.7C137.1,192,171,192,206,170.7C240,149,274,107,309,101.3C342.9,96,377,128,411,154.7C445.7,181,480,203,514,197.3C548.6,192,583,160,617,128C651.4,96,686,64,720,80C754.3,96,789,160,823,181.3C857.1,203,891,181,926,154.7C960,128,994,96,1029,117.3C1062.9,139,1097,213,1131,218.7C1165.7,224,1200,160,1234,160C1268.6,160,1303,224,1337,218.7C1371.4,213,1406,139,1423,101.3L1440,64L1440,0L1422.9,0C1405.7,0,1371,0,1337,0C1302.9,0,1269,0,1234,0C1200,0,1166,0,1131,0C1097.1,0,1063,0,1029,0C994.3,0,960,0,926,0C891.4,0,857,0,823,0C788.6,0,754,0,720,0C685.7,0,651,0,617,0C582.9,0,549,0,514,0C480,0,446,0,411,0C377.1,0,343,0,309,0C274.3,0,240,0,206,0C171.4,0,137,0,103,0C68.6,0,34,0,17,0L0,0Z"></path></svg>